<?xml version="1.0" standalone="no"?>
<!DOCTYPE svg PUBLIC "-//W3C//DTD SVG 20010904//EN"
 "http://www.w3.org/TR/2001/REC-SVG-20010904/DTD/svg10.dtd">
<svg version="1.0" xmlns="http://www.w3.org/2000/svg"
 width="768.000000pt" height="768.000000pt" viewBox="0 0 768.000000 768.000000"
 preserveAspectRatio="xMidYMid meet">
<metadata>
Created by potrace 1.14, written by Peter Selinger 2001-2017
</metadata>
<g transform="translate(0.000000,768.000000) scale(0.100000,-0.100000)"
fill="#000000" stroke="none">
<path d="M3535 7430 c-210 -22 -368 -48 -545 -91 -705 -170 -1339 -550 -1841
-1104 -319 -352 -612 -871 -749 -1325 -112 -372 -151 -627 -155 -1015 -4 -304
5 -423 47 -670 94 -558 331 -1104 679 -1561 201 -264 459 -521 709 -705 408
-300 826 -499 1292 -614 186 -46 350 -73 564 -94 116 -12 598 -6 694 7 41 6
98 14 125 17 76 9 248 43 360 71 911 227 1707 813 2200 1619 264 431 434 919
500 1435 40 312 27 780 -31 1081 -9 46 -18 95 -21 109 -13 76 -68 276 -107
394 -123 366 -311 722 -547 1032 -137 180 -305 363 -477 517 -476 426 -1084
725 -1722 846 -151 28 -189 33 -368 50 -105 10 -510 10 -607 1z"/>
</g>
</svg>
